<svg width="387" height="264" viewBox="0 0 387 264" fill="none" xmlns="http://www.w3.org/2000/svg">
<path d="M281.695 3.30153L211.857 0.405324C205.356 0.135751 198.845 0.501185 192.416 1.49643L87.9703 17.6642C55.5619 22.6809 32.575 51.9394 35.3709 84.6144C36.4989 97.7968 33.4055 110.996 26.5379 122.305L11.532 147.014C3.37493 160.446 -0.455995 176.061 0.558307 191.742C3.28466 233.894 39.6027 265.893 81.7622 263.29L205.442 255.652C212.034 255.245 218.569 254.186 224.951 252.491L335.301 223.179C351.548 218.863 362.859 204.156 362.859 187.345C362.859 179.381 365.423 171.628 370.172 165.235L374.816 158.984C386.813 142.834 390.015 121.784 383.363 102.796L371.928 70.1534C358.383 31.4903 322.627 4.99899 281.695 3.30153Z" fill="url(#paint0_linear_1831_6707)" fill-opacity="0.3"/>
<defs>
<linearGradient id="paint0_linear_1831_6707" x1="196.5" y1="0" x2="196.5" y2="284.181" gradientUnits="userSpaceOnUse">
<stop stop-color="#FED0AE"/>
<stop offset="1" stop-color="#FFCDCC"/>
</linearGradient>
</defs>
</svg>
