<svg width="421" height="339" viewBox="0 0 421 339" fill="none" xmlns="http://www.w3.org/2000/svg">
<path d="M409.13 101.223L379.805 53.0875C364.685 28.2673 339.514 11.2533 310.846 6.47488L275 0.5L210 26.3867L123 58.5L68.1768 43.1933C48.9475 37.8244 28.3267 43.5591 14.63 58.0847C-1.74558 75.4513 -4.7024 101.539 7.37086 122.13L19.4442 142.721C30.646 161.826 34.0058 184.529 28.8175 206.06L28.2451 208.435C18.6311 248.331 36.7123 289.754 72.5038 309.83L114.5 333.387L213.028 338.237C242.205 339.673 270.551 328.28 290.618 307.05L358.403 235.337C365.286 228.055 375.239 224.509 385.176 225.8C403.902 228.231 420.5 213.649 420.5 194.766V141.741C420.5 127.448 416.566 113.43 409.13 101.223Z" fill="url(#paint0_linear_2238_8315)" fill-opacity="0.3"/>
<defs>
<linearGradient id="paint0_linear_2238_8315" x1="203" y1="7.88672" x2="203" y2="292.068" gradientUnits="userSpaceOnUse">
<stop stop-color="#FED0AE"/>
<stop offset="1" stop-color="#FFCDCC"/>
</linearGradient>
</defs>
</svg>
