<svg width="455" height="305" viewBox="0 0 455 305" fill="none" xmlns="http://www.w3.org/2000/svg">
<path d="M339.746 15.0288L252.675 1.50343C242.001 -0.154568 231.129 -0.0722976 220.482 1.74705L98.6451 22.5657C59.8461 29.1954 28.5452 57.969 18.68 96.074L6.60777 142.704L1.32527 187.924C-0.847836 206.526 2.24682 225.365 10.2568 242.295L12.8156 247.703C30.7959 285.706 70.6253 308.404 112.485 304.504L254.066 291.313L359.377 283.685C399.414 280.785 433.837 254.224 446.797 216.232L448.963 209.883C457.326 185.366 455.85 158.56 444.844 135.111L414.922 71.357C400.79 41.2471 372.613 20.1342 339.746 15.0288Z" fill="url(#paint0_linear_135_2692)" fill-opacity="0.4"/>
<defs>
<linearGradient id="paint0_linear_135_2692" x1="230" y1="-1" x2="230" y2="367.494" gradientUnits="userSpaceOnUse">
<stop stop-color="#F6EFD3"/>
<stop offset="1" stop-color="#F8DBDA"/>
</linearGradient>
</defs>
</svg>
