<svg width="389" height="312" viewBox="0 0 389 312" fill="none" xmlns="http://www.w3.org/2000/svg">
<path d="M370.042 61.2075L359.624 46.6617C348.207 30.7205 332.355 18.4877 314.04 11.4847L284.003 0L228.806 18.1704C220.636 20.8598 212.153 22.4839 203.567 23.0026L91.0205 29.8013C61.824 31.565 35.0072 46.4893 18.1206 70.3721C4.51361 89.6165 -1.57184 113.179 1.01452 136.606L6.65247 187.673C9.08892 209.741 18.8005 230.372 34.2564 246.311L67.7977 280.903C90.899 304.728 124.315 315.54 156.994 309.764L207.864 300.774C213.61 299.758 219.434 299.248 225.268 299.248H266.332C311.148 299.248 350.492 269.43 362.608 226.282L385.019 146.47C393.225 117.249 387.715 85.8827 370.042 61.2075Z" fill="url(#paint0_linear_135_2694)"/>
<defs>
<linearGradient id="paint0_linear_135_2694" x1="233.934" y1="-41.4799" x2="233.934" y2="383.689" gradientUnits="userSpaceOnUse">
<stop stop-color="#8F979B" stop-opacity="0.4"/>
<stop offset="1" stop-color="#F8DBDA" stop-opacity="0.4"/>
</linearGradient>
</defs>
</svg>
