<svg width="392" height="314" viewBox="0 0 392 314" fill="none" xmlns="http://www.w3.org/2000/svg">
<g filter="url(#filter0_d_1836_7245)">
<path d="M214.8 306H279.717C321.98 306 359.679 279.432 373.892 239.631L384 211.327L346.744 112.954C344.326 106.568 342.89 99.8519 342.484 93.0353C339.757 47.1578 293.009 17.3349 250.256 34.1993L242.922 37.0924L158.752 5.53134C148.997 1.8736 138.664 0 128.246 0H100.114C52.1468 0 19.3351 48.4297 37.1205 92.9777C38.804 97.1946 40.0599 101.57 40.8692 106.038L48.5088 148.213C53.0107 173.066 47.9412 198.703 34.3185 219.972L0 273.553L102.678 285.634L195.268 304.074C201.7 305.355 208.242 306 214.8 306Z" fill="url(#paint0_linear_1836_7245)" shape-rendering="crispEdges"/>
</g>
<defs>
<filter id="filter0_d_1836_7245" x="0" y="0" width="392" height="314" filterUnits="userSpaceOnUse" color-interpolation-filters="sRGB">
<feFlood flood-opacity="0" result="BackgroundImageFix"/>
<feColorMatrix in="SourceAlpha" type="matrix" values="0 0 0 0 0 0 0 0 0 0 0 0 0 0 0 0 0 0 127 0" result="hardAlpha"/>
<feOffset dx="4" dy="4"/>
<feGaussianBlur stdDeviation="2"/>
<feComposite in2="hardAlpha" operator="out"/>
<feColorMatrix type="matrix" values="0 0 0 0 0 0 0 0 0 0 0 0 0 0 0 0 0 0 0.25 0"/>
<feBlend mode="normal" in2="BackgroundImageFix" result="effect1_dropShadow_1836_7245"/>
<feBlend mode="normal" in="SourceGraphic" in2="effect1_dropShadow_1836_7245" result="shape"/>
</filter>
<linearGradient id="paint0_linear_1836_7245" x1="231.329" y1="-65.6805" x2="231.329" y2="372.699" gradientUnits="userSpaceOnUse">
<stop stop-color="#E8B87A"/>
<stop offset="1" stop-color="#F4F4F4" stop-opacity="0.4"/>
</linearGradient>
</defs>
</svg>
